# xmcd
#
# Track frame offsets:
#	187
#	27077
#	56395
#	84972
#
# Disc length: 1607 seconds
#
# Revision: 1
# Processed by: cddbd v1.5PL3 Copyright (c) Steve Scherf et al.
# Submitted via: CDex 1.50Beta5
#
DISCID=20064504
DTITLE=サイケアウツ - ヴァーチャコア
DYEAR=1900
DGENRE=Dnace
TTITLE0=SWAMPY MYRDER( mug thug swing mix)
TTITLE1=KAOS FUTURE to クラナカ ( 不確定性 Mix)
TTITLE2=GOD EATER ( 戯論寂滅 Mix )
TTITLE3=DOG EATER ( hell fire Mix )
EXTD=
EXTT0=
EXTT1=
EXTT2=
EXTT3=
PLAYORDER=
